<svg width="5496" height="3390" viewBox="0 0 5496 3390" fill="none" xmlns="http://www.w3.org/2000/svg">
<path d="M3963.6 1.33313C3945.6 3.86647 3931.6 10.5331 3924 20.5331C3920.27 25.4665 3916.13 35.3331 3913.6 45.1998C3912.53 49.7331 3912 204.8 3911.47 624.666C3910.8 1088.13 3910.4 1198.53 3908.93 1200.93C3907.87 1202.8 3906 1204 3904 1204C3901.2 1204 3900.13 1202.13 3894.13 1186.93C3890.53 1177.6 3813.87 972.933 3724 732C3634 491.066 3540.93 241.866 3517.2 178.266C3493.47 114.533 3472.27 58.6665 3470.13 54.1331C3462.4 36.9331 3449.73 21.8665 3436.67 14.3998C3424.4 7.33313 3414.13 5.1998 3384.67 3.73313C3349.2 1.9998 3250.4 3.46647 3236.4 5.9998C3222.53 8.3998 3211.2 13.7331 3204.53 20.9331C3198.13 27.9998 3194.67 35.1998 3191.6 48.3998C3189.6 57.3331 3189.47 127.2 3189.07 988C3188.67 2000.93 3188.13 1931.33 3195.87 1947.33C3201.2 1958.13 3208.93 1965.87 3219.33 1971.2C3234.13 1978.53 3238.93 1978.93 3320.13 1978.27C3381.33 1977.87 3394.8 1977.47 3402.27 1975.6C3427.33 1969.6 3438.27 1958.27 3444.4 1931.73C3446.4 1922.8 3446.53 1876.27 3446.93 1334.4L3447.33 746.933L3451.47 746C3453.73 745.467 3455.73 745.333 3455.87 745.6C3457.87 748.133 3682.93 1354.13 3866.27 1850.67C3887.47 1908.27 3906.13 1957.47 3907.73 1960C3911.6 1966.13 3916.27 1970.53 3922 1973.07C3926.13 1974.93 3937.47 1975.2 4022 1974.8C4125.33 1974.4 4127.73 1974.27 4140.93 1967.07C4153.6 1960.13 4162.4 1946.8 4165.47 1929.47C4166.93 1921.07 4167.2 1763.2 4167.2 989.333C4167.33 398.667 4166.8 56.1331 4166 50.3998C4162.4 25.5998 4150.93 11.0665 4128.93 3.73313C4120.13 0.799799 4118.67 0.666466 4046 0.533133C4005.33 0.399799 3968.13 0.799799 3963.6 1.33313Z" fill="#FF7F00"/>
<path d="M473.333 4.00014C456.666 4.80014 451.733 5.46681 443.466 8.40014C419.866 16.6668 405.733 33.0668 397.466 61.6001C395.733 67.7335 390.266 92.1335 385.466 116C380.533 139.867 306.266 489.333 220.533 892.667C32.1331 1778.4 46.2665 1711.47 21.8665 1828.67C9.73313 1886.53 1.46647 1929.2 1.06647 1936.13C-0.800199 1964.27 8.7998 1974.8 39.9998 1978.67C45.8665 1979.47 83.7331 1980.4 124 1980.8C188 1981.47 198.533 1981.33 207.2 1979.47C227.466 1975.2 243.466 1964.13 253.333 1948C260.933 1935.47 265.2 1919.6 281.333 1842.67C312.666 1693.2 327.333 1625.73 330.533 1616.27C337.866 1594.93 348.4 1581.6 363.733 1574C382.533 1564.93 377.066 1565.2 551.333 1565.6L708 1566L718.4 1568.93C743.866 1576.13 756.133 1588.93 766.133 1618.4C770 1630 771.333 1635.73 806 1802C817.866 1858.4 828.933 1910.67 830.8 1918C835.333 1936 841.733 1948.8 851.333 1959.2C860.933 1969.33 870.933 1974.93 886.8 1978.93C898.4 1981.87 900.4 1982 972.666 1982C1051.47 1982 1058.67 1981.47 1072 1975.47C1075.73 1973.73 1080.53 1970.8 1082.93 1968.8C1092.13 1961.07 1096.27 1944.8 1094.13 1925.47C1093.47 1919.2 1062.53 1769.33 1025.33 1592.67C899.066 991.2 856.533 788.134 763.866 344C732 191.067 704.4 61.4668 702.666 56.0001C694.266 30.9335 680.4 16.4001 657.2 8.53347C648 5.46681 643.466 4.80014 621.333 3.86681C591.866 2.66681 502.4 2.66681 473.333 4.00014ZM555.866 611.6C565.6 654.667 590 770.134 617.866 904.667C636.266 993.334 659.733 1107.07 670.133 1157.33C686.666 1236.67 689.066 1250.4 689.2 1261.47C689.333 1273.2 688.933 1274.93 685.333 1282.13C680.666 1291.2 673.6 1297.07 662.4 1301.47C655.333 1304.13 651.2 1304.53 612.666 1305.6C566.133 1306.93 450.266 1305.87 440.133 1303.87C423.066 1300.67 409.733 1290.4 405.333 1277.2C401.6 1265.87 402.533 1255.2 410.666 1216.53C502.133 782.8 535.466 627.6 539.6 614.934L543.866 602.667H548.8H553.733L555.866 611.6Z" fill="#FF7F00"/>
<path d="M2393.33 5.46699C2360.27 8.40032 2344.27 20.9337 2336.93 48.9337C2334.8 57.467 2334.67 99.0669 2334.67 797.334C2334.67 1506 2334.8 1537.07 2337.07 1546.93C2343.33 1573.73 2357.07 1587.2 2383.6 1592.8C2392 1594.53 2421.87 1594.93 2608 1595.47C2726.13 1595.87 2849.07 1595.6 2881.33 1594.93C2935.87 1593.87 2940.53 1593.6 2947.6 1591.07C2963.33 1585.33 2973.47 1574.53 2979.6 1557.33L2982.67 1548.67V1467.33C2982.67 1392.53 2982.53 1385.33 2980.27 1377.47C2975.33 1360.13 2967.87 1350.27 2954.8 1344.13C2939.07 1336.67 2944.4 1336.93 2786 1336C2658.27 1335.33 2637.73 1334.93 2632 1333.2C2610.93 1326.53 2599.2 1314.67 2593.07 1293.73C2591.2 1287.07 2590.8 1277.07 2590.27 1224.13C2590 1184.27 2590.27 1158.27 2591.2 1151.47C2594.27 1129.07 2601.87 1115.07 2615.33 1106.93C2630.13 1098 2628.4 1098.27 2710.67 1097.33C2774.4 1096.53 2786.4 1096.13 2793.07 1094.27C2803.6 1091.2 2810.53 1087.47 2817.6 1080.93C2825.2 1074 2829.07 1068 2832.93 1057.07C2836 1048.67 2836 1048.67 2836 968.667C2836 882.934 2835.87 881.2 2829.07 867.6C2822.53 854.534 2812.4 846.267 2796.27 840.934C2788.4 838.267 2784.13 838.134 2714 837.334C2650.4 836.667 2638.93 836.134 2632.27 834.267C2609.2 827.6 2598.27 815.467 2592.27 790.134C2591.07 784.934 2590.67 727.067 2590.67 548C2590.67 328.8 2590.8 312 2592.93 303.6C2599.2 279.2 2611.2 267.867 2636.67 261.867C2645.73 259.734 2659.6 259.467 2792 258.8C2937.33 258 2937.33 258 2946 255.067C2968.13 247.6 2978 234.4 2982 207.067C2983.07 200 2983.33 174.134 2982.93 126C2982.53 63.6003 2982.13 54.4003 2980.13 47.467C2974.8 29.2003 2967.6 19.6003 2954.93 13.3337C2936.27 4.13366 2956.27 4.80032 2666.67 4.53366C2522.93 4.40032 2400 4.80032 2393.33 5.46699Z" fill="#FF7F00"/>
<path d="M4686.67 5.33362C4648.93 9.46696 4628.27 26.267 4617.47 61.3336C4615.47 67.6003 4599.2 141.6 4581.2 226C4409.07 1033.07 4333.2 1388.67 4313.07 1482C4302.4 1531.6 4301.6 1536.4 4301.47 1551.33C4301.33 1566.27 4301.6 1567.87 4305.07 1574.93C4311.47 1588.13 4322 1594.27 4342.8 1597.33C4350 1598.4 4376.27 1598.67 4427.33 1598.4C4498.67 1597.87 4501.73 1597.73 4511.73 1594.93C4537.33 1587.87 4551.87 1573.2 4561.47 1544.93C4563.33 1539.73 4569.2 1513.73 4574.8 1487.33C4595.33 1388.53 4611.73 1313.6 4614.93 1303.33C4623.87 1274.53 4640 1258.8 4667.07 1252.4C4676.53 1250.13 4686.53 1250 4805.33 1250C4948.4 1250 4945.87 1249.87 4965.6 1259.33C4982 1267.33 4993.2 1282.8 5000.53 1307.6C5002.13 1312.93 5009.07 1344.4 5016 1377.6C5031.33 1451.73 5049.47 1536.13 5051.47 1543.33C5054.4 1553.73 5062.67 1568.53 5069.73 1576.27C5079.47 1586.67 5093.87 1593.87 5110.93 1596.67C5128.8 1599.73 5271.07 1598.93 5281.33 1595.73C5297.6 1590.8 5307.2 1582.27 5310.93 1569.47C5314.13 1558.4 5312.67 1537.73 5306.67 1510C5304 1497.47 5275.87 1362.53 5244 1210C5178.8 897.467 5120 616.267 5060.13 330.667C5037.73 224 5016.13 120.4 5012 100.667C5007.87 80.8003 5002.67 60.1336 5000.53 54.667C4990.67 29.067 4973.6 14.0003 4946.67 7.20029C4938.13 5.06696 4926.93 4.80029 4816.67 4.53362C4750.27 4.40029 4691.87 4.80029 4686.67 5.33362ZM4815.07 418C4815.87 418.667 4857.47 615.334 4901.47 826C4925.07 939.334 4927.2 952.4 4923.33 966.134C4919.87 978.4 4910.4 987.067 4895.07 991.734C4889.07 993.467 4876.93 993.867 4812.67 994.267C4734.67 994.8 4725.87 994.4 4714.53 989.334C4706.4 985.867 4698.8 978.267 4695.2 970.267C4692.67 964.534 4692.13 961.2 4692.13 950.667C4692.27 939.2 4697.2 914.934 4745.6 689.334C4775.07 552.534 4800.8 435.2 4802.8 428.4L4806.4 416.134L4810.53 416.934C4812.8 417.334 4814.8 417.867 4815.07 418Z" fill="#FF7F00"/>
<path d="M1280 10.1337C1278.53 10.4004 1274.13 11.3337 1270.13 12.1337C1247.2 16.8004 1235.2 30.1337 1230.53 55.7337C1229.07 64.4004 1228.8 216.4 1228.8 996.667C1228.8 2016 1228.13 1939.6 1236.67 1956.8C1243.6 1970.8 1254.93 1978.27 1275.2 1982.13C1291.47 1985.2 1430.8 1984.13 1443.07 1980.93C1465.6 1974.93 1475.87 1964.13 1481.73 1940.27C1483.73 1932.13 1484 1907.73 1484.27 1664.67C1484.53 1427.47 1484.8 1396.93 1486.67 1388.4C1493.73 1356.67 1517.6 1338.93 1544.4 1345.87C1567.2 1351.73 1590.67 1370.8 1609.2 1398.67C1618.93 1413.2 1692.13 1549.73 1826.53 1804.53C1863.73 1874.93 1896.93 1936.4 1900.27 1941.2C1915.87 1963.2 1932.93 1974.8 1953.73 1977.33C1974.67 1979.87 2073.73 1981.6 2124.67 1980.4C2172.8 1979.2 2173.47 1979.2 2179.33 1976C2194.53 1967.47 2196.53 1950.27 2184.8 1926C2182 1920.13 2116.93 1798 2040 1654.67C1963.2 1511.33 1898.53 1389.6 1896.4 1384.27C1894.27 1378.93 1892.27 1370.8 1891.73 1366C1890.27 1349.6 1899.33 1337.87 1922.4 1326.8C1928.4 1323.87 1941.47 1317.73 1951.33 1313.07C2059.2 1262 2120.13 1177.87 2134.93 1060C2137.2 1041.73 2137.33 1020.13 2137.33 680.667C2137.33 341.2 2137.2 319.6 2134.93 301.334C2129.33 256.267 2119.2 221.2 2101.33 184.667C2061.07 102.534 1987.33 44.1337 1894.27 20.8004C1883.87 18.2671 1867.07 14.6671 1856.93 13.0671L1838.67 10.1337L1560.67 9.86707C1407.73 9.73373 1281.47 9.86707 1280 10.1337ZM1815.33 269.334C1848.27 273.334 1866.13 286.267 1875.07 312.534L1878.67 323.334V678.667C1878.67 1012.27 1878.53 1034.53 1876.4 1042.4C1869.73 1066.4 1857.2 1079.07 1833.2 1086.27C1825.87 1088.4 1814.4 1088.67 1682 1089.07C1581.33 1089.33 1536 1088.93 1529.73 1088C1512 1084.93 1497.33 1074.53 1491.2 1060.53C1484.4 1045.33 1484.67 1062.27 1484.8 681.334C1484.8 387.067 1485.07 324.267 1486.53 315.734C1491.73 286.8 1506.4 273.467 1537.33 269.467C1550.8 267.867 1801.33 267.734 1815.33 269.334Z" fill="#FF7F00"/>
<path d="M2356.67 1722.13C2340 1726.67 2327.33 1736.53 2321.2 1749.87C2314.13 1765.47 2313.73 1770 2314.4 1852.67C2314.8 1920.4 2315.07 1929.47 2317.2 1936.53C2323.87 1959.2 2334.27 1969.47 2357.07 1975.73C2364.8 1977.87 2387.33 1978 2684 1978C2951.33 1978 3003.87 1977.73 3010 1976.13C3027.2 1971.87 3040.53 1961.47 3046.67 1947.6C3053.07 1932.8 3053.33 1929.73 3053.33 1848C3053.33 1764.13 3053.33 1763.73 3045.2 1747.73C3038.53 1734.67 3024.13 1724.53 3007.47 1721.33C3002.67 1720.4 2893.33 1720 2682.13 1720.13C2406.4 1720.13 2363.07 1720.4 2356.67 1722.13Z" fill="#FF7F00"/>
<path d="M4339.73 1722.67C4319.07 1728.13 4308.27 1738.53 4301.2 1760C4299.07 1766.67 4298.8 1774.27 4298.27 1842C4297.87 1920.13 4298.4 1931.07 4303.47 1944.53C4309.73 1961.6 4326.27 1974.27 4346 1977.33C4358.27 1979.2 5250.13 1979.2 5262 1977.2C5279.2 1974.53 5294.13 1964.93 5300.93 1952.4C5309.47 1936.8 5309.33 1937.87 5309.33 1849.33C5309.33 1774.8 5309.2 1768 5306.93 1760.67C5299.6 1736.93 5286.27 1725.33 5261.73 1721.33C5256.13 1720.53 5102.53 1720 4801.33 1720.13C4361.87 1720.13 4349.07 1720.27 4339.73 1722.67Z" fill="#FF7F00"/>
<path d="M4708.67 2279.47C4678.53 2281.87 4668.93 2289.73 4658.93 2320.67C4656.93 2326.53 4627.73 2428.27 4594 2546.67C4560.27 2665.07 4529.2 2772.13 4525.07 2784.53L4517.6 2807.07L4510.4 2789.2C4499.47 2762 4420.8 2533.73 4376.27 2399.87C4362.67 2359.07 4349.2 2320.67 4346.27 2314.53C4336.8 2294.8 4327.47 2287.07 4309.6 2284C4298.13 2282 4216.67 2282.93 4209.87 2285.2C4196.93 2289.33 4190.8 2297.6 4188.67 2314.13C4187.73 2321.33 4187.33 2490 4187.6 2838C4188 3327.2 4188.13 3351.73 4190.4 3359.33C4197.6 3383.33 4210.67 3387.73 4271.33 3386.27C4306.67 3385.47 4314.27 3384 4321.47 3376.8C4329.87 3368.4 4329.33 3390.67 4329.73 3050.93C4330 2748.13 4330.13 2740 4332.53 2740C4334.4 2740 4335.87 2742.4 4338.67 2749.6C4343.73 2763.47 4378.27 2864.8 4405.2 2945.33C4417.87 2983.07 4430 3017.6 4432.13 3021.87C4436.67 3031.2 4446 3041.33 4453.47 3044.93C4463.33 3049.87 4469.33 3050.4 4522 3050.13C4572.53 3049.87 4573.47 3049.87 4580.27 3046.8C4588.8 3042.93 4598.93 3032.53 4603.6 3022.67C4605.47 3018.67 4609.33 3007.2 4612 2997.33C4621.33 2963.07 4635.73 2913.47 4668.93 2800.67C4687.33 2738.27 4704.13 2680.93 4706.53 2672.93C4709.73 2661.87 4711.2 2658.67 4712.93 2658.67C4715.2 2658.67 4715.33 2675.33 4715.33 2997.6C4715.47 3184.13 4715.87 3340.53 4716.53 3345.33C4718.27 3358.8 4720.4 3364.93 4725.07 3370.27C4734 3380.4 4746.4 3382.67 4792.4 3382.67C4827.47 3382.67 4838.67 3381.47 4846.93 3376.67C4855.07 3371.87 4857.87 3365.07 4859.47 3345.87C4860.4 3335.47 4860.67 3155.2 4860.4 2818.67L4860 2307.33L4855.73 2298.67C4851.2 2289.47 4846.8 2285.2 4837.6 2281.6C4832.67 2279.73 4824.67 2279.33 4773.33 2279.2C4741.07 2279.2 4712 2279.33 4708.67 2279.47Z" fill="#FF7F00"/>
<path d="M120.533 2283.6C116 2286 112 2289.33 109.733 2292.67C101.6 2304.4 102 2268.27 102 2830C102 3181.2 102.4 3346.13 103.466 3352C105.466 3364.53 110.533 3372.93 119.466 3377.87L126.666 3382H315.333C522.8 3382 512.533 3382.4 539.466 3373.87C596.133 3356.13 636.666 3310.67 649.466 3250.67C652.533 3236.27 653.733 3120.53 653.733 2837.33C653.733 2548.27 652.533 2431.2 649.466 2418C634.933 2355.33 592.133 2306.13 536.133 2287.47C513.2 2279.87 517.6 2280 314.533 2280H127.866L120.533 2283.6ZM487.733 2426.93C495.733 2429.33 503.866 2437.73 506.8 2446.67C509.2 2453.73 509.333 2467.73 509.733 2818C510 3049.33 509.6 3187.73 508.8 3197.6C507.2 3215.73 504.8 3222.67 497.6 3228.93C488.666 3236.8 490.8 3236.67 378 3236.67C281.733 3236.67 274.133 3236.53 267.733 3234.27C259.2 3231.2 252.4 3224 249.066 3214.4C246.8 3207.6 246.666 3190 246.266 2836.67C246 2594.13 246.4 2462.13 247.2 2454.93C249.466 2436.4 255.466 2429.33 270.933 2426.67C282 2424.8 481.466 2425.07 487.733 2426.93Z" fill="#FF7F00"/>
<path d="M3178 2283.33C3110.8 2293.2 3057.6 2340.4 3036.13 2409.33C3026.67 2439.87 3027.33 2407.47 3027.33 2828.8C3027.33 3097.33 3027.73 3213.2 3028.8 3222.93C3030.8 3240.93 3036.4 3263.07 3043.07 3278.4C3066.13 3331.73 3108.53 3365.6 3169.2 3379.07C3182.67 3382 3183.2 3382 3305.33 3382C3440.93 3382 3434 3382.4 3462.67 3373.2C3512.13 3357.47 3552.8 3316.93 3568.53 3267.33C3577.87 3238.13 3579.73 3217.73 3579.87 3142.67C3580 3076.8 3579.87 3075.33 3570.8 3065.87C3561.6 3056.4 3557.87 3055.73 3505.07 3056.27L3459.87 3056.67L3453.33 3060C3445.87 3063.87 3438.93 3073.6 3437.47 3082.27C3437.07 3085.07 3436.67 3110.67 3436.67 3139.33C3436.67 3167.87 3436.13 3196.27 3435.33 3202.27C3433.33 3220.53 3426.53 3230.4 3412.53 3235.47C3407.33 3237.33 3394.53 3237.47 3305.2 3237.6C3249.33 3237.6 3201.6 3237.2 3199.2 3236.67C3188.13 3234.27 3180.13 3227.6 3175.07 3216.67L3172 3210V2832.67C3172 2519.6 3172.27 2454.27 3173.87 2449.33C3174.93 2445.73 3177.73 2441.2 3181.2 2437.87C3190.67 2428.4 3186.27 2428.67 3304.8 2428.67H3410.8L3418.67 2432.67C3425.47 2436.13 3427.2 2437.73 3430.27 2444C3432.67 2448.53 3434.53 2455.2 3435.33 2461.33C3436 2466.8 3436.67 2507.73 3436.67 2552.13C3436.67 2641.2 3436.8 2642.13 3444.93 2651.47C3453.33 2660.93 3456.93 2661.87 3485.33 2662C3499.33 2662.13 3516.4 2662.93 3523.33 2663.73C3551.07 2667.07 3566.67 2659.87 3576.27 2639.33L3580 2631.33L3579.87 2553.33C3579.73 2452.53 3577.87 2426.13 3569.07 2398.13C3561.47 2374 3547.6 2351.2 3529.33 2332.93C3506 2309.6 3476.93 2293.87 3443.2 2286.4C3429.47 2283.33 3428.67 2283.33 3334.67 2283.33C3282.67 2283.33 3228.93 2282.93 3215.33 2282.4C3196.93 2281.73 3187.47 2281.87 3178 2283.33Z" fill="#FF7F00"/>
<path d="M1588 2283.6C1573.47 2285.73 1566 2290.93 1562.4 2301.73C1560.13 2308.27 1560 2335.6 1559.6 2814C1559.2 3308 1559.47 3349.6 1563.33 3362.8C1567.33 3377.07 1577.47 3383.2 1600 3385.33C1618.27 3386.93 1650.4 3387.07 1667.73 3385.33C1683.07 3383.87 1690.93 3380.8 1695.6 3374.53C1703.2 3364.4 1702.67 3402.53 1702.67 2835.33C1702.67 2343.73 1702.53 2310.93 1700.4 2304C1697.6 2295.2 1693.07 2290 1684.8 2286.13C1678.93 2283.47 1676.53 2283.33 1635.33 2283.2C1611.47 2283.07 1590.27 2283.2 1588 2283.6Z" fill="#FF7F00"/>
<path d="M3679.33 2284.53C3666.8 2287.33 3661.6 2291.87 3658.13 2302.93C3656.27 2309.33 3656 2356.13 3655.6 2821.33C3655.33 3144.13 3655.73 3338.4 3656.53 3348.13C3658.53 3371.87 3662.53 3378.67 3677.07 3383.6C3683.47 3385.73 3696.93 3386 3868 3386.4C4070.27 3386.8 4082.93 3386.53 4095.33 3380.4C4109.6 3373.2 4111.73 3364 4111.07 3314C4110.67 3279.33 4110.67 3279.33 4107.07 3271.87C4102.67 3263.07 4097.2 3259.47 4084.67 3257.47C4079.07 3256.53 4033.6 3256 3957.33 3256C3886.93 3256 3834.93 3255.47 3829.6 3254.67C3813.73 3252.4 3806.67 3247.07 3802.4 3234.13C3800.53 3228.27 3800.13 3218.67 3799.6 3164.93C3799.07 3100.13 3800.27 3075.2 3804.13 3065.33C3806.8 3058.8 3813.6 3052.67 3820.27 3050.67C3829.2 3048.13 3853.73 3046.67 3889.33 3046.67C3936.67 3046.67 3953.2 3044.4 3964.8 3036.53C3970.8 3032.4 3976 3023.07 3977.87 3012.8C3980.8 2996.53 3978.67 2938.4 3974.53 2924.27C3972.13 2915.6 3964.93 2907.33 3956.67 2903.47C3950.93 2900.8 3947.87 2900.67 3887.33 2899.87C3831.73 2899.2 3823.33 2898.93 3818 2896.93C3809.87 2893.73 3805.07 2888.8 3802.27 2880.67C3800.13 2874.53 3800 2858.8 3799.6 2673.33C3799.33 2544.27 3799.73 2468.67 3800.53 2461.6C3802.67 2443.87 3808.93 2435.07 3822.27 2430.27C3825.47 2429.2 3863.33 2428.53 3956.67 2428C4098.53 2427.07 4094.53 2427.33 4102.67 2419.33C4110.13 2411.87 4110.67 2407.33 4110.67 2354.67V2307.33L4106.67 2299.33C4102 2289.87 4096.53 2286.27 4084 2284.13C4071.6 2282 3689.2 2282.4 3679.33 2284.53Z" fill="#FF7F00"/>
<path d="M756.8 2286.13C744.266 2289.47 738.133 2295.73 735.466 2308.13C734.666 2311.87 734.133 2468.8 733.866 2728L733.6 3142L736.533 3149.47C739.866 3158.27 745.866 3164.67 754 3168.53C760 3171.33 760.4 3171.33 916.666 3171.33C1067.07 3171.33 1073.47 3171.2 1078 3168.8C1084.53 3165.33 1088.53 3161.47 1091.73 3155.33C1094.53 3150.13 1094.67 3148.67 1094.67 3099.33C1094.67 3049.6 1094.67 3048.53 1091.73 3043.07C1088.13 3036.53 1081.2 3030.4 1074.27 3028C1070.53 3026.67 1050.8 3026 990.666 3025.33C910.533 3024.4 903.333 3024 893.333 3019.07C878.266 3011.47 874.4 2997.6 876 2955.33C877.466 2914.4 880.266 2905.87 895.333 2897.87C899.6 2895.6 903.6 2895.33 941.333 2895.2C980.266 2895.2 983.2 2895.07 991.6 2892.27C1002.53 2888.67 1008.93 2882 1011.6 2871.6C1014.13 2861.6 1014.13 2776.13 1011.47 2768.93C1008.13 2759.33 998.933 2751.47 988 2748.67C985.866 2748.13 965.066 2747.33 942 2746.8C902.8 2746 899.6 2745.73 894.666 2743.07C887.733 2739.47 884.133 2735.47 880.4 2727.33L877.333 2720.67V2587.33V2454L880.4 2447.33C885.2 2437.07 890.666 2432.27 901.2 2429.2C903.466 2428.53 939.6 2428 981.333 2428C1028 2428 1060.67 2427.47 1065.87 2426.67C1080.67 2424.13 1088.27 2418.67 1092.67 2407.07C1095.2 2400.4 1095.33 2396.67 1095.33 2356C1095.33 2315.07 1095.2 2311.6 1092.67 2304.8C1089.6 2296.93 1083.87 2290.93 1075.6 2286.93C1071.07 2284.8 1060.13 2284.67 917.333 2284.4C785.866 2284.13 762.933 2284.4 756.8 2286.13Z" fill="#FF7F00"/>
<path d="M2598.8 2285.33C2580.4 2288.53 2571.47 2296.8 2565.2 2316.53C2563.33 2322.53 2548.93 2387.33 2533.33 2460.67C2517.6 2534 2490.4 2661.47 2472.8 2744C2455.2 2826.53 2429.33 2948 2415.2 3014C2393.33 3116.53 2389.6 3135.73 2389.47 3146C2389.33 3160.13 2391.33 3164.67 2399.87 3169.47C2405.07 3172.4 2406.93 3172.67 2444 3173.47C2483.73 3174.27 2504 3173.47 2513.33 3170.4C2516.27 3169.47 2521.33 3166 2524.67 3162.67C2532.8 3154.67 2536.93 3143.2 2542.8 3112.67C2545.33 3099.47 2548.53 3083.87 2550 3078C2551.33 3072.13 2554.13 3059.2 2556 3049.33C2563.47 3010.93 2568.4 2997.47 2577.73 2989.07C2588.4 2979.47 2589.47 2979.33 2670.67 2979.33C2735.6 2979.33 2743.47 2979.6 2751.2 2981.73C2765.47 2985.6 2772.53 2992.8 2777.87 3008.8C2779.33 3013.2 2784.53 3036.27 2789.33 3060.13C2809.07 3156.8 2812.67 3165.47 2836.4 3171.33C2843.33 3173.2 2852.13 3173.47 2889.73 3173.07C2934.67 3172.67 2934.67 3172.67 2941.2 3169.33C2951.87 3164 2953.33 3160.93 2953.2 3144.93C2953.07 3132.53 2950.13 3117.2 2920.93 2978.67C2887.07 2817.6 2838.67 2587.07 2803.33 2418.4C2788.13 2345.73 2781.2 2315.07 2778.53 2309.33C2774.4 2300.13 2766.13 2291.87 2756.93 2287.6C2750.8 2284.67 2749.47 2284.67 2678 2284.53C2638 2284.4 2602.4 2284.8 2598.8 2285.33ZM2687.87 2574.27C2723.07 2737.47 2737.07 2807.2 2736 2814.27C2734.8 2822.13 2730.4 2828.13 2722.67 2832C2716 2835.33 2715.87 2835.33 2677.33 2835.33C2650 2835.33 2637.07 2834.8 2633.07 2833.6C2626.4 2831.6 2614.8 2821.47 2611.2 2814.53L2608.53 2809.33L2616.67 2768.93C2621.2 2746.8 2628.67 2710.4 2633.47 2688C2647.07 2623.73 2668.67 2523.47 2669.33 2521.6C2669.6 2520.8 2671.33 2520 2673.07 2520C2676.13 2520 2676.53 2521.6 2687.87 2574.27Z" fill="#FF7F00"/>
<path d="M5137.73 2285.87C5121.6 2289.33 5111.6 2299.6 5106 2318.67C5104.67 2323.47 5092.27 2379.87 5078.67 2444C5055.87 2551.33 4988 2868.4 4947.73 3056C4929.47 3141.6 4928 3152 4933.33 3161.07C4936.4 3166.27 4943.33 3170.27 4952.53 3172C4956.13 3172.67 4977.6 3173.33 5000.27 3173.47C5050.67 3173.73 5052.8 3173.33 5065.47 3160.8C5071.47 3154.8 5074.4 3150.53 5076.53 3144.67C5078.27 3140.27 5084.93 3110.53 5091.47 3078.67C5098 3046.8 5104.53 3016.8 5106 3012C5110.67 2996.27 5119.07 2986.93 5132.67 2981.87C5138 2980 5147.73 2979.73 5212.8 2979.73C5278.53 2979.6 5287.6 2979.87 5293.6 2981.87C5306.53 2986.13 5315.73 2996.13 5319.73 3010.27C5320.93 3014.53 5327.07 3042.53 5333.33 3072.67C5339.6 3102.67 5346.53 3133.2 5348.67 3140.27C5355.2 3161.33 5363.33 3169.07 5382 3172C5393.2 3173.73 5470.53 3173.73 5476.8 3172C5483.73 3170.13 5490.13 3165.47 5493.2 3160C5498.8 3150.67 5498 3145.6 5468.13 3004C5452.93 2931.73 5414.53 2748.4 5382.67 2596.53C5350.8 2444.53 5323.47 2316.93 5322 2312.8C5318.27 2302.93 5308.13 2292 5299.07 2287.87L5292 2284.67L5218.67 2284.4C5164.67 2284.27 5143.33 2284.67 5137.73 2285.87ZM5218 2518.53C5218 2519.07 5231.33 2582.27 5247.47 2658.8C5279.73 2810.4 5280.67 2816.53 5274.53 2824.93C5270 2831.2 5263.73 2833.33 5245.07 2834.8C5220.13 2836.93 5180.13 2835.73 5173.33 2832.8C5166.67 2830 5156.27 2819.87 5153.33 2813.33C5151.07 2808.4 5151.2 2807.87 5163.2 2748.53C5169.73 2715.6 5183.33 2650.4 5193.2 2603.6C5203.2 2556.67 5211.33 2518.13 5211.33 2517.87C5211.33 2517.6 5212.8 2517.33 5214.67 2517.33C5216.53 2517.33 5218 2517.87 5218 2518.53Z" fill="#FF7F00"/>
<path d="M1813.33 2286.67C1792.67 2288.13 1784 2293.2 1779.6 2306C1777.47 2312.27 1777.33 2344 1776.93 2830C1776.67 3180.53 1777.07 3350.67 1778 3357.87C1780.13 3374.27 1786.13 3382.67 1799.2 3386.93C1806 3389.07 1879.6 3390 1891.07 3388C1906.8 3385.33 1914.53 3379.2 1918.93 3366.27C1921.07 3359.87 1921.33 3347.33 1922 3211.33L1922.67 3063.33L1925.87 3055.33C1927.6 3050.93 1931.6 3044.8 1934.67 3041.47C1939.73 3036.13 1940.8 3035.6 1946.13 3035.73C1958.93 3035.87 1979.6 3046 1985.73 3055.07C1987.87 3058.13 2009.33 3097.87 2033.33 3143.33C2057.33 3188.8 2085.47 3241.6 2095.73 3260.67C2106 3279.73 2121.6 3309.07 2130.27 3326C2139.07 3342.8 2148.93 3360.4 2152.13 3364.8C2164 3381.6 2175.07 3386.13 2208 3388C2232.8 3389.33 2288.8 3388.4 2299.07 3386.53C2307.6 3384.8 2313.6 3380.13 2314.8 3374C2316.67 3363.73 2315.73 3361.73 2233.33 3207.33C2213.33 3169.87 2187.07 3121.07 2174.93 3098.8C2151.07 3055.07 2148.27 3048.27 2151.2 3038.67C2153.73 3030.27 2160.4 3024.93 2181.87 3014C2205.6 3002 2221.47 2991.07 2235.87 2976.53C2262.27 2950.27 2278.67 2914.67 2283.2 2874.27C2285.2 2856.67 2285.2 2469.07 2283.2 2450.93C2279.6 2417.87 2269.07 2387.87 2252.27 2362.67C2243.6 2349.6 2221.47 2327.6 2208.13 2318.67C2179.6 2299.6 2146.8 2289.33 2106.27 2286.67C2083.87 2285.2 1833.6 2285.2 1813.33 2286.67ZM2118 2436.13C2122 2438 2127.07 2441.33 2129.2 2443.47C2131.33 2445.6 2134.67 2450.67 2136.53 2454.67L2140 2462V2660C2140 2851.6 2139.87 2858.27 2137.47 2864.53C2134.13 2873.33 2126.27 2881.6 2117.6 2885.47L2110.67 2888.67L2031.6 2889.07C1962.8 2889.47 1951.47 2889.2 1945.2 2887.33C1936.8 2884.93 1929.73 2879.2 1925.6 2871.47L1922.67 2866V2660.67V2455.33L1926.53 2448.27C1930.67 2440.8 1938 2435.33 1946.4 2433.2C1948.8 2432.67 1986.67 2432.27 2030.67 2432.4L2110.67 2432.67L2118 2436.13Z" fill="#FF7F00"/>
<path d="M766.666 3240C725.2 3243.2 719.6 3253.73 721.066 3324.4C721.733 3359.6 722.933 3366.93 729.6 3374.8C734.666 3380.8 742.4 3383.73 756.8 3385.33C772.666 3386.93 1081.07 3387.07 1096.8 3385.47C1113.07 3383.73 1118.67 3381.87 1124.8 3376.4C1134 3368.13 1134.67 3363.73 1134.67 3312.67C1134.67 3265.87 1134.4 3263.07 1127.87 3253.6C1126.27 3251.07 1122.93 3247.73 1120.4 3246.13C1109.87 3238.93 1119.07 3239.33 942.666 3239.2C852.533 3239.07 773.333 3239.47 766.666 3240Z" fill="#FF7F00"/>
<path d="M2435.33 3239.6C2423.33 3240.27 2411.2 3242.67 2406.13 3245.33C2390.13 3253.6 2386.53 3268.67 2387.73 3325.07C2388.4 3360.8 2389.6 3368.13 2396 3375.73C2400.67 3381.33 2408.13 3383.87 2423.73 3385.47C2432.53 3386.27 2522.27 3386.67 2678.67 3386.27C2890.8 3386 2920.93 3385.6 2927.33 3383.87C2938 3380.93 2942.93 3377.87 2946.53 3372.27C2952.13 3363.87 2952.93 3354.93 2952.4 3308L2952 3264.67L2948.53 3257.2C2944.67 3249.07 2939.87 3244.8 2930.27 3241.47C2924.53 3239.6 2902.13 3239.33 2683.33 3239.2C2550.93 3239.2 2439.33 3239.33 2435.33 3239.6Z" fill="#FF7F00"/>
<path d="M4959.33 3240.27C4942.93 3242.53 4935.2 3248.67 4931.07 3262.67C4928.53 3271.2 4928.53 3354.13 4931.07 3362.67C4935.6 3377.87 4943.2 3383.2 4963.33 3385.33C4979.73 3387.07 5425.73 3387.07 5448.67 3385.33C5469.73 3383.73 5478 3381.33 5484.4 3374.93C5493.47 3365.87 5494.4 3360.67 5495.07 3316.67C5495.6 3273.73 5494.4 3262.67 5487.87 3252.93C5483.2 3245.87 5474 3241.87 5458.67 3240C5443.33 3238.27 4971.73 3238.4 4959.33 3240.27Z" fill="#FF7F00"/>
</svg>
